{"title":"A Night With Secret Garden [DVD9,NTSC,ISO]","uid":10093196,"size":7877304240,"categoryP":"video","categoryS":"music_videos","magnet":"?xt=urn:btih:d08bb7473bfe046b14f76422a93a2558cbd486af&amp;dn=A+Night+With+Secret+Garden+%5BDVD9%2CNTSC%2CISO%5D&amp;tr=udp%3A%2F%2Ftracker.openbittorrent.com%3A80&amp;tr=udp%3A%2F%2Fopen.demonii.com%3A1337&amp;tr=udp%3A%2F%2Ftracker.coppersurfer.tk%3A6969&amp;tr=udp%3A%2F%2Fexodus.desync.com%3A6969","seeders":1,"leechers":0,"uploader":"Celtoid","files":-1,"time":1399240976,"description":"This is an untouched bit for bit copy using ImgBurn. This requires a Dual-Layer DVDR to burn to.\n\n\nComplete name                            : N:VIDEO_TSVTS_01_1.VOB\nFormat                                   : MPEG-PS\nFile size                                : 1 024 MiB\nDuration                                 : 8s 942ms\nOverall bit rate mode                    : Variable\nOverall bit rate                         : 960 Mbps\n\nVideo\nID                                       : 224 (0xE0)\nFormat                                   : MPEG Video\nFormat version                           : Version 2\nFormat profile                           : Main@Main\nFormat settings, BVOP                    : Yes\nFormat settings, Matrix                  : Custom\nFormat settings, GOP                     : M=3, N=15\nDuration                                 : 8s 942ms\nBit rate mode                            : Variable\nBit rate                                 : 939 Mbps\nWidth                                    : 720 pixels\nHeight                                   : 480 pixels\nDisplay aspect ratio                     : 4:3\nFrame rate                               : 29.970 fps\nStandard                                 : NTSC\nColor space                              : YUV\nChroma subsampling                       : 4:2:0\nBit depth                                : 8 bits\nScan type                                : Interlaced\nScan order                               : Top Field First\nCompression mode                         : Lossy\nBits/(Pixel*Frame)                       : 90.649\nStream size                              : 1 001 MiB (98%)\n\nAudio #1\nID                                       : 189 (0xBD)-128 (0x80)\nFormat                                   : AC-3\nFormat/Info                              : Audio Coding 3\nMode extension                           : CM (complete main)\nFormat settings, Endianness              : Big\nMuxing mode                              : DVD-Video\nDuration                                 : 8s 768ms\nBit rate mode                            : Constant\nBit rate                                 : 448 Kbps\nChannel(s)                               : 6 channels\nChannel positions                        : Front: L C R, Side: L R, LFE\nSampling rate                            : 48.0 KHz\nBit depth                                : 16 bits\nCompression mode                         : Lossy\nDelay relative to video                  : -66ms\nStream size                              : 480 KiB (0%)\n\nAudio #2\nID                                       : 189 (0xBD)-129 (0x81)\nFormat                                   : AC-3\nFormat/Info                              : Audio Coding 3\nMode extension                           : CM (complete main)\nFormat settings, Endianness              : Big\nMuxing mode                              : DVD-Video\nDuration                                 : 8s 768ms\nBit rate mode                            : Constant\nBit rate                                 : 448 Kbps\nChannel(s)                               : 6 channels\nChannel positions                        : Front: L C R, Side: L R, LFE\nSampling rate                            : 48.0 KHz\nBit depth                                : 16 bits\nCompression mode                         : Lossy\nDelay relative to video                  : -66ms\nStream size                              : 480 KiB (0%)\n\nAudio #3\nID                                       : 189 (0xBD)-162 (0xA2)\nFormat                                   : PCM\nFormat settings, Endianness              : Big\nFormat settings, Sign                    : Signed\nMuxing mode                              : DVD-Video\nDuration                                 : 8s 942ms\nBit rate mode                            : Constant\nBit rate                                 : 1 536 Kbps\nChannel(s)                               : 2 channels\nSampling rate                            : 48.0 KHz\nBit depth                                : 16 bits\nStream size                              : 1.64 MiB (0%)","torrent":{"xt":"urn:btih:d08bb7473bfe046b14f76422a93a2558cbd486af","amp;dn":"A+Night+With+Secret+Garden+%5BDVD9%2CNTSC%2CISO%5D","amp;tr":["udp%3A%2F%2Ftracker.openbittorrent.com%3A80","udp%3A%2F%2Fopen.demonii.com%3A1337","udp%3A%2F%2Ftracker.coppersurfer.tk%3A6969","udp%3A%2F%2Fexodus.desync.com%3A6969"],"infoHash":"d08bb7473bfe046b14f76422a93a2558cbd486af","infoHashBuffer":{"type":"Buffer","data":[208,139,183,71,59,254,4,107,20,247,100,34,169,58,37,88,203,212,134,175]},"announce":[],"urlList":[]}}